<svg xmlns="http://www.w3.org/2000/svg" viewBox="0 0 800 600">
  <!-- Fundo com gradiente -->
  <rect width="800" height="600" fill="#f5f5f5" />
  
  <!-- Elementos gráficos representando consultoria -->
  <g transform="translate(100, 100)">
    <!-- Gráfico de crescimento -->
    <polyline points="0,300 100,250 200,200 300,150 400,100 500,50" 
              stroke="#1B5E20" stroke-width="5" fill="none" />
    
    <!-- Círculos nos pontos do gráfico -->
    <circle cx="0" cy="300" r="8" fill="#1B5E20" />
    <circle cx="100" cy="250" r="8" fill="#1B5E20" />
    <circle cx="200" cy="200" r="8" fill="#1B5E20" />
    <circle cx="300" cy="150" r="8" fill="#1B5E20" />
    <circle cx="400" cy="100" r="8" fill="#1B5E20" />
    <circle cx="500" cy="50" r="8" fill="#1B5E20" />
    
    <!-- Ícones representando pessoas -->
    <g transform="translate(550, 150)">
      <circle cx="0" cy="0" r="30" fill="#8BC34A" />
      <circle cx="15" cy="-40" r="15" fill="#8BC34A" />
      <circle cx="-15" cy="-40" r="15" fill="#8BC34A" />
    </g>
    
    <!-- Elementos decorativos -->
    <rect x="50" y="320" width="500" height="10" rx="5" fill="#689F38" />
    <rect x="50" y="340" width="400" height="10" rx="5" fill="#689F38" />
    <rect x="50" y="360" width="300" height="10" rx="5" fill="#689F38" />
  </g>
</svg>