<svg xmlns="http://www.w3.org/2000/svg" viewBox="0 0 800 400">
  <!-- Folha e mão -->
  <g>
    <path d="M180,100 C220,60 280,80 260,140 C240,200 180,180 180,100" fill="#8BC34A" />
    <path d="M160,120 C200,80 260,100 240,160 C220,220 160,200 160,120" fill="#689F38" />
    <path d="M140,140 C180,100 240,120 220,180 C200,240 140,220 140,140" fill="#558B2F" />
    <path d="M170,160 C150,180 160,220 190,210 C220,200 190,140 170,160" fill="#33691E" />
  </g>
  
  <!-- Texto KUGADZI -->
  <g>
    <path d="M220,150 L220,250 L250,250 L250,210 L280,250 L320,250 L270,190 L320,150 L280,150 L250,190 L250,150 Z" fill="#1B5E20" />
    <path d="M330,150 L330,250 L360,250 L360,210 C360,200 370,190 380,190 C390,190 400,200 400,210 L400,250 L430,250 L430,200 C430,170 410,145 380,145 C350,145 330,170 330,200 Z" fill="#1B5E20" />
    <path d="M440,150 L440,250 L530,250 C550,250 570,230 570,210 C570,190 550,170 530,170 L470,170 L470,150 Z M470,190 L520,190 C530,190 540,200 540,210 C540,220 530,230 520,230 L470,230 Z" fill="#1B5E20" />
    <path d="M580,150 L580,250 L670,250 L670,230 L610,230 L610,210 L660,210 L660,190 L610,190 L610,170 L670,170 L670,150 Z" fill="#1B5E20" />
    <path d="M680,150 L680,250 L710,250 L710,190 L750,250 L780,250 L740,190 L780,150 L740,150 L710,190 L710,150 Z" fill="#1B5E20" />
    <path d="M790,150 L790,250 L820,250 L820,150 Z" fill="#1B5E20" />
  </g>
  
  <!-- Texto CONSULTORIA -->
  <text x="400" y="300" font-family="Arial, sans-serif" font-size="40" text-anchor="middle" fill="#000">CONSULTORIA</text>
  
  <!-- Texto SOCIEDADE UNIPESSOAL, LDA -->
  <text x="400" y="340" font-family="Arial, sans-serif" font-size="20" text-anchor="middle" fill="#000">SOCIEDADE UNIPESSOAL, LDA</text>
</svg>