<?xml version="1.0" standalone="no"?>
<!DOCTYPE svg PUBLIC "-//W3C//DTD SVG 20010904//EN"
 "http://www.w3.org/TR/2001/REC-SVG-20010904/DTD/svg10.dtd">
<svg version="1.0" xmlns="http://www.w3.org/2000/svg"
 width="1653.000000pt" height="682.000000pt" viewBox="0 0 1653.000000 682.000000"
 preserveAspectRatio="xMidYMid meet">

<g transform="translate(0.000000,682.000000) scale(0.100000,-0.100000)"
fill="#000000" stroke="none">
<path d="M3058 4642 c38 -62 52 -74 108 -97 44 -18 60 -30 62 -46 3 -18 0 -20
-15 -15 -60 24 -310 76 -366 76 -16 0 -16 -2 2 -38 23 -46 81 -99 129 -119 25
-10 225 -53 249 -53 2 0 3 -9 3 -20 0 -24 -7 -25 -136 -5 -102 15 -354 21
-354 8 1 -24 23 -35 76 -39 101 -7 206 -26 196 -36 -15 -15 22 -99 49 -114 22
-12 22 -13 4 -13 -63 0 -196 49 -224 83 -8 9 -18 16 -25 16 -16 0 33 -43 84
-72 25 -15 100 -40 168 -57 167 -42 162 -38 162 -115 l0 -64 -47 14 c-58 18
-96 18 -89 2 47 -113 45 -225 -5 -413 -59 -221 -69 -276 -69 -383 0 -171 49
-362 139 -540 26 -52 35 -62 51 -57 14 4 20 2 20 -9 0 -14 30 -16 255 -16
l255 0 0 288 c0 283 1 288 25 340 13 28 26 52 29 52 2 0 113 -153 247 -340
l242 -340 325 0 324 0 -49 63 c-27 34 -208 270 -402 525 -318 417 -351 465
-338 480 8 9 188 230 401 490 l386 472 -318 0 -317 0 -245 -335 c-134 -184
-247 -335 -250 -335 -3 0 -18 25 -33 55 -27 56 -37 122 -16 109 8 -5 8 -1 0
14 -7 13 -11 104 -11 256 l0 236 -190 0 -189 0 -63 34 c-67 37 -203 86 -237
86 -20 0 -20 -1 -3 -28z m112 -32 c11 -6 17 -16 14 -22 -4 -6 1 -17 11 -25 24
-17 3 -17 -39 1 -31 13 -86 63 -86 78 0 8 65 -13 100 -32z m-146 -102 c33 -7
44 -13 35 -19 -12 -8 -11 -11 1 -19 13 -8 12 -10 -5 -11 l-20 0 20 -9 c14 -6
15 -9 5 -10 -11 0 -9 -6 8 -20 l24 -20 -44 6 c-23 3 -62 15 -85 26 -44 20
-107 83 -98 97 5 8 67 0 159 -21z m372 -94 c18 -14 18 -14 -6 -3 -31 14 -36
19 -24 19 6 0 19 -7 30 -16z m299 -204 c3 -5 1 -10 -4 -10 -6 0 -11 5 -11 10
0 6 2 10 4 10 3 0 8 -4 11 -10z m-531 -542 c-2 -18 -6 -43 -9 -55 -4 -18 -2
-21 12 -16 16 6 16 5 4 -10 -11 -14 -11 -18 3 -23 9 -3 13 -11 10 -16 -4 -6 0
-14 7 -19 11 -6 11 -11 1 -21 -6 -6 -12 -17 -12 -22 0 -6 4 -5 8 2 5 8 15 -8
26 -45 24 -81 28 -103 11 -68 -20 42 -18 21 5 -53 11 -35 18 -68 14 -73 -3 -5
-1 -9 5 -9 6 0 8 -6 5 -14 -3 -7 2 -30 10 -51 19 -44 19 -48 6 -40 -15 9 -12
-8 6 -33 8 -12 13 -26 9 -31 -3 -5 0 -15 7 -23 12 -12 16 -29 19 -85 1 -13 6
-23 11 -23 5 0 6 -5 3 -10 -4 -6 -1 -18 7 -27 10 -13 10 -17 1 -20 -7 -3 -13
-9 -13 -14 0 -6 5 -7 11 -3 9 5 10 -1 5 -20 -5 -21 -4 -26 6 -20 7 4 4 -3 -7
-16 l-20 -23 24 13 c22 11 23 11 10 -7 -23 -32 -152 -143 -167 -143 -18 0 -76
126 -107 235 -50 171 -43 365 19 575 14 47 33 114 42 150 9 36 18 71 20 78 7
24 11 12 8 -20z m276 -333 c0 -8 -4 -15 -10 -15 -5 0 -7 7 -4 15 4 8 8 15 10
15 2 0 4 -7 4 -15z"/>
<path d="M3191 3454 c0 -11 3 -14 6 -6 3 7 2 16 -1 19 -3 4 -6 -2 -5 -13z"/>
<path d="M7563 4566 c-103 -20 -219 -61 -293 -104 -92 -52 -217 -181 -257
-262 -65 -133 -66 -143 -71 -605 -4 -439 2 -527 38 -635 52 -154 177 -289 342
-370 145 -70 249 -93 418 -93 196 0 340 37 487 125 88 53 194 164 236 250 66
135 70 158 75 511 l4 317 -406 0 -406 0 0 -215 0 -215 160 0 160 0 0 -53 c0
-29 -7 -74 -15 -99 -59 -171 -355 -222 -508 -87 -76 66 -77 75 -77 512 0 256
4 392 11 418 17 56 62 104 127 136 50 24 69 28 147 28 79 0 97 -4 148 -28 32
-16 70 -45 85 -64 15 -19 34 -44 43 -55 15 -20 19 -19 227 77 l211 98 -16 31
c-65 127 -193 256 -307 310 -125 59 -204 78 -356 82 -87 2 -160 -1 -207 -10z"/>
<path d="M5060 3835 c0 -794 1 -806 64 -940 41 -86 86 -143 167 -211 249 -212
662 -257 984 -108 135 62 274 192 329 306 71 149 69 121 73 936 l4 732 -260 0
-261 0 0 -702 c0 -785 3 -744 -71 -815 -60 -57 -122 -78 -224 -77 -135 1 -225
49 -269 144 -21 44 -21 58 -24 748 l-3 702 -254 0 -255 0 0 -715z"/>
<path d="M9265 4538 c-3 -7 -162 -463 -354 -1013 l-349 -1000 271 -3 c148 -1
272 -1 274 1 1 2 31 95 65 206 l62 201 275 -2 276 -3 64 -202 65 -203 274 0
c215 0 273 3 270 13 -3 6 -166 463 -363 1015 l-358 1002 -234 0 c-178 0 -235
-3 -238 -12z m255 -562 c0 -3 35 -154 135 -573 l5 -23 -155 0 c-85 0 -155 2
-155 5 0 7 139 566 145 583 4 11 25 18 25 8z"/>
<path d="M10600 3535 l0 -1016 468 3 467 4 97 26 c264 72 436 233 495 464 16
61 18 121 18 519 0 440 0 452 -23 530 -52 178 -157 305 -322 388 -178 89 -187
90 -727 94 l-473 4 0 -1016z m879 529 c63 -18 125 -71 143 -122 19 -53 19
-751 0 -803 -7 -20 -29 -53 -49 -73 -55 -54 -107 -66 -300 -66 l-163 0 0 540
0 540 158 0 c114 0 173 -4 211 -16z"/>
<path d="M12350 4315 l0 -235 408 -2 409 -3 -440 -684 -440 -684 47 -94 46
-93 755 0 755 0 0 236 0 237 -415 -5 c-228 -3 -415 -4 -415 -2 0 2 194 312
431 689 237 377 433 694 435 703 2 9 -18 52 -46 95 l-50 77 -740 0 -740 0 0
-235z"/>
<path d="M14150 3535 l0 -1015 255 0 255 0 0 1015 0 1015 -255 0 -255 0 0
-1015z"/>
<path d="M2122 4307 c-246 -218 -390 -470 -410 -721 -4 -50 -4 -107 -1 -126
l6 -35 2 40 c2 64 37 183 76 263 44 88 97 153 249 303 133 132 158 175 157
271 0 33 -2 62 -4 64 -1 2 -35 -25 -75 -59z m68 -11 c0 -64 -43 -143 -103
-186 l-32 -24 18 27 c16 24 16 27 1 27 -10 0 -14 5 -11 14 4 9 -2 17 -15 22
-18 5 -12 14 53 80 40 41 77 74 81 74 5 0 8 -15 8 -34z"/>
<path d="M1886 4270 c-98 -126 -151 -237 -179 -381 -18 -89 -32 -248 -16 -184
36 149 88 259 185 395 37 52 73 109 79 126 12 35 8 114 -5 114 -5 0 -34 -32
-64 -70z m54 -50 c-6 -15 -21 -37 -34 -49 l-22 -20 1 38 c0 26 10 50 30 77
l30 39 3 -29 c2 -15 -2 -41 -8 -56z"/>
<path d="M2780 4260 c6 -11 13 -20 16 -20 2 0 0 9 -6 20 -6 11 -13 20 -16 20
-2 0 0 -9 6 -20z"/>
<path d="M2300 4174 c-111 -74 -157 -112 -258 -209 -99 -95 -166 -183 -216
-283 -87 -174 -91 -319 -13 -547 111 -324 452 -571 885 -641 91 -14 298 -21
309 -10 10 9 -16 180 -42 280 -41 156 -132 329 -226 427 -24 25 -96 91 -160
147 -163 143 -208 200 -244 310 l-21 66 -46 -42 c-128 -118 -98 -371 71 -595
28 -37 51 -70 51 -72 0 -26 -139 66 -211 140 -67 69 -94 113 -119 194 -55 176
-3 309 213 539 71 75 114 153 123 219 4 32 1 28 -16 -22 -24 -67 -55 -114
-108 -162 -37 -34 -53 -43 -33 -19 13 16 -10 81 -24 69 -5 -5 -3 0 4 10 12 15
12 19 -4 31 -16 11 -10 19 60 82 42 38 87 76 101 84 22 14 35 60 16 60 -4 0
-46 -25 -92 -56z m133 -737 c17 -17 55 -50 82 -72 84 -66 259 -247 300 -310
79 -120 130 -268 149 -429 l6 -49 -82 6 c-75 6 -196 34 -157 36 14 1 14 6 5
36 -7 21 -16 33 -23 30 -17 -6 -17 17 0 34 10 10 9 11 -3 6 -12 -4 -24 21 -57
122 -23 71 -45 139 -48 152 -5 17 -10 20 -15 11 -5 -8 -10 -2 -15 19 -3 17
-11 31 -17 31 -6 0 -8 3 -5 7 4 3 2 12 -3 19 -6 6 -10 16 -9 20 1 5 -3 22 -10
39 -8 20 -9 31 -2 33 6 2 -1 14 -14 26 -14 13 -22 25 -19 29 3 3 0 25 -6 49
-22 78 -20 74 -30 58 -8 -12 -10 -10 -11 10 -1 14 0 31 1 39 1 8 -2 17 -7 20
-17 13 -56 61 -50 61 4 0 22 -15 40 -33z m297 -802 c0 -5 -5 -3 -10 5 -5 8
-10 20 -10 25 0 6 5 3 10 -5 5 -8 10 -19 10 -25z"/>
<path d="M5825 2341 c-121 -32 -200 -128 -226 -275 -19 -113 14 -239 87 -325
62 -74 198 -109 305 -78 67 20 145 82 129 102 -9 11 -20 7 -56 -20 -56 -43
-113 -59 -185 -52 -149 13 -244 133 -244 307 0 174 95 294 244 307 72 7 129
-9 185 -52 40 -30 46 -32 57 -18 11 13 9 19 -16 40 -69 57 -196 86 -280 64z"/>
<path d="M6463 2341 c-155 -40 -253 -219 -223 -407 26 -164 127 -267 273 -281
152 -14 267 64 318 216 30 90 24 222 -14 302 -34 70 -87 126 -146 152 -50 22
-156 31 -208 18z m212 -65 c87 -51 135 -150 135 -276 0 -127 -48 -225 -137
-277 -42 -24 -58 -28 -128 -28 -95 0 -143 21 -199 86 -47 56 -70 126 -70 219
0 153 69 260 194 301 50 17 155 4 205 -25z"/>
<path d="M6950 2000 c0 -343 0 -350 20 -350 19 0 20 8 22 317 l3 316 235 -316
c186 -250 240 -317 258 -317 l22 0 0 350 c0 343 0 350 -20 350 -20 0 -20 -7
-20 -317 l0 -317 -236 317 c-196 264 -240 317 -260 317 l-24 0 0 -350z"/>
<path d="M7761 2331 c-29 -10 -67 -33 -85 -50 -28 -28 -31 -38 -31 -91 0 -54
3 -62 35 -95 36 -37 121 -82 246 -129 96 -36 144 -78 151 -133 11 -85 -71
-143 -203 -143 -62 0 -160 29 -204 60 -28 20 -33 21 -47 8 -13 -13 -9 -19 34
-46 121 -78 311 -81 410 -6 58 44 69 140 22 204 -25 32 -114 81 -263 141 -143
58 -184 133 -113 204 74 74 236 73 335 -2 30 -23 36 -24 49 -10 13 13 11 17
-19 40 -82 63 -218 84 -317 48z"/>
<path d="M8222 2118 c4 -209 6 -239 25 -286 29 -72 65 -116 121 -149 41 -25
57 -28 132 -28 99 0 148 20 199 82 66 79 74 122 79 381 4 227 3 232 -16 232
-20 0 -20 -7 -24 -232 -3 -219 -5 -236 -27 -285 -65 -145 -243 -191 -357 -91
-77 68 -94 142 -94 408 0 196 0 200 -21 200 -21 0 -21 -2 -17 -232z"/>
<path d="M8880 2000 l0 -350 255 0 c248 0 255 1 255 20 0 19 -7 20 -235 20
l-235 0 0 330 c0 323 0 330 -20 330 -20 0 -20 -7 -20 -350z"/>
<path d="M9490 2330 c0 -19 7 -20 140 -20 l140 0 0 -330 c0 -323 0 -330 20
-330 20 0 20 7 20 330 l0 330 140 0 c133 0 140 1 140 20 0 20 -7 20 -300 20
-293 0 -300 0 -300 -20z"/>
<path d="M10399 2334 c-132 -40 -219 -197 -206 -370 17 -228 198 -360 407
-298 72 21 148 97 180 179 19 48 24 79 24 155 0 76 -5 107 -24 155 -32 82
-108 158 -180 179 -65 19 -139 19 -201 0z m177 -35 c60 -16 135 -83 165 -151
19 -44 23 -70 23 -148 0 -119 -23 -180 -95 -244 -89 -80 -216 -88 -320 -19
-157 104 -157 422 1 527 67 44 142 56 226 35z"/>
<path d="M10940 2332 c0 -19 7 -21 143 -24 154 -3 184 -12 220 -60 26 -34 27
-126 3 -162 -35 -54 -58 -61 -218 -64 -138 -4 -148 -5 -148 -23 0 -17 8 -19
101 -19 157 0 174 -14 266 -220 40 -91 52 -109 70 -110 22 0 22 1 6 38 -40 97
-106 229 -128 258 -14 18 -25 35 -25 38 0 2 13 7 28 11 46 10 90 63 101 120
18 98 -12 173 -85 210 -33 17 -63 21 -186 23 -143 4 -148 3 -148 -16z"/>
<path d="M11510 2000 c0 -343 0 -350 20 -350 20 0 20 7 20 350 0 343 0 350
-20 350 -20 0 -20 -7 -20 -350z"/>
<path d="M11941 2328 c-5 -13 -68 -160 -141 -328 -168 -388 -154 -350 -127
-350 19 0 38 36 156 313 74 171 137 315 141 320 3 4 68 -136 142 -310 112
-260 140 -319 157 -321 12 -2 21 0 21 5 0 4 -66 162 -147 350 -132 307 -150
343 -171 343 -14 0 -26 -8 -31 -22z"/>
<path d="M5420 1433 c-50 -20 -66 -75 -31 -107 10 -10 42 -23 71 -31 81 -21
101 -49 58 -79 -35 -25 -76 -20 -110 14 -34 34 -48 38 -48 12 0 -44 83 -83
145 -68 63 16 87 87 41 123 -13 11 -50 25 -81 32 -65 15 -80 35 -46 63 32 25
67 23 97 -7 14 -14 29 -25 34 -25 17 0 11 36 -10 55 -20 18 -93 29 -120 18z"/>
<path d="M5732 1420 c-35 -21 -62 -72 -62 -115 0 -133 172 -184 240 -72 73
119 -60 259 -178 187z m111 -21 c33 -15 49 -45 49 -94 0 -49 -16 -79 -49 -94
-40 -18 -73 -13 -104 18 -24 24 -29 38 -29 76 0 79 65 125 133 94z"/>
<path d="M6093 1426 c-17 -8 -39 -28 -47 -45 -20 -38 -20 -113 -1 -151 40 -78
169 -79 210 -1 13 26 13 30 -3 36 -9 3 -18 1 -21 -6 -8 -26 -51 -59 -76 -59
-40 0 -65 18 -82 57 -44 107 60 201 139 126 20 -19 31 -24 39 -16 7 7 3 18
-13 38 -29 33 -96 43 -145 21z"/>
<path d="M6380 1305 c0 -113 2 -135 15 -135 13 0 15 22 15 135 0 113 -2 135
-15 135 -13 0 -15 -22 -15 -135z"/>
<path d="M6540 1305 l0 -135 100 0 c82 0 100 3 100 15 0 12 -16 15 -85 15
l-85 0 0 50 0 50 75 0 c60 0 75 3 75 15 0 12 -15 15 -75 15 l-75 0 0 40 0 40
80 0 c64 0 80 3 80 15 0 12 -17 15 -95 15 l-95 0 0 -135z"/>
<path d="M6850 1305 l0 -137 80 4 c71 3 83 6 107 30 23 24 28 38 31 97 4 64 2
70 -26 102 -29 32 -34 34 -111 37 l-81 4 0 -137z m157 81 c25 -21 28 -31 28
-81 0 -50 -3 -60 -29 -81 -23 -20 -37 -24 -75 -22 l-46 3 -3 89 c-2 49 -1 95
2 103 9 24 91 16 123 -11z"/>
<path d="M7243 1408 c-6 -18 -29 -79 -51 -136 -39 -98 -40 -103 -20 -100 14 2
25 15 33 38 11 34 13 35 72 38 l60 3 13 -41 c9 -27 19 -40 32 -40 10 0 18 3
18 7 0 4 -23 65 -52 135 -44 107 -56 128 -73 128 -16 0 -25 -9 -32 -32z m71
-106 c7 -21 4 -22 -38 -22 l-45 0 22 61 22 61 16 -39 c9 -21 19 -48 23 -61z"/>
<path d="M7500 1305 l0 -135 65 0 c103 0 140 28 151 114 15 104 -35 156 -148
156 l-68 0 0 -135z m163 74 c15 -19 18 -35 15 -82 -5 -73 -21 -89 -92 -95
l-56 -4 0 107 0 107 57 -4 c44 -4 61 -10 76 -29z"/>
<path d="M7830 1305 l0 -135 100 0 c82 0 100 3 100 15 0 12 -16 15 -85 15
l-85 0 0 50 0 50 75 0 c60 0 75 3 75 15 0 12 -15 15 -75 15 l-75 0 0 40 0 40
80 0 c64 0 80 3 80 15 0 12 -17 15 -95 15 l-95 0 0 -135z"/>
<path d="M8310 1334 c0 -104 0 -106 30 -136 28 -28 35 -30 82 -26 40 4 57 12
75 32 21 25 23 37 23 132 0 83 -3 104 -14 104 -11 0 -15 -22 -18 -101 -3 -92
-5 -103 -27 -120 -32 -26 -67 -24 -96 6 -23 22 -25 32 -25 120 0 78 -3 95 -15
95 -12 0 -15 -18 -15 -106z"/>
<path d="M8640 1305 c0 -112 3 -135 15 -135 11 0 15 21 17 107 l3 107 70 -107
c97 -148 105 -146 105 28 0 112 -3 135 -15 135 -11 0 -15 -20 -17 -102 l-3
-103 -69 103 c-97 144 -106 141 -106 -33z"/>
<path d="M8980 1305 c0 -128 1 -135 20 -135 19 0 20 7 20 135 0 128 -1 135
-20 135 -19 0 -20 -7 -20 -135z"/>
<path d="M9140 1305 c0 -111 3 -135 14 -135 11 0 16 15 18 53 l3 52 50 3 c82
4 95 10 111 49 13 29 13 41 3 65 -15 38 -43 48 -130 48 l-69 0 0 -135z m154
89 c9 -8 16 -24 16 -34 0 -34 -28 -50 -86 -50 l-54 0 0 43 c0 24 3 47 7 50 13
14 101 7 117 -9z"/>
<path d="M9450 1305 l0 -135 100 0 c82 0 100 3 100 15 0 12 -16 15 -80 15
l-80 0 0 50 0 50 75 0 c60 0 75 3 75 15 0 12 -15 15 -75 15 l-75 0 0 40 0 40
80 0 c64 0 80 3 80 15 0 12 -18 15 -100 15 l-100 0 0 -135z"/>
<path d="M9799 1425 c-30 -16 -44 -56 -30 -84 11 -19 33 -30 111 -53 40 -12
45 -16 45 -43 0 -26 -5 -31 -35 -38 -43 -11 -90 5 -97 33 -3 12 -14 20 -25 20
-14 0 -18 -5 -14 -16 3 -9 6 -20 6 -25 0 -19 66 -49 108 -49 35 0 49 6 73 29
51 51 29 100 -53 121 -69 17 -88 28 -88 49 0 44 78 55 114 16 23 -25 46 -33
46 -16 0 58 -97 91 -161 56z"/>
<path d="M10106 1419 c-30 -23 -35 -68 -11 -93 9 -9 35 -20 58 -26 52 -13 89
-31 94 -47 6 -18 -34 -53 -62 -53 -35 0 -74 20 -80 42 -8 22 -35 24 -35 2 0
-28 19 -52 51 -63 99 -34 189 25 148 98 -11 19 -30 30 -76 43 -76 20 -83 24
-83 48 0 44 78 54 114 15 23 -25 46 -33 46 -16 0 61 -108 94 -164 50z"/>
<path d="M10455 1430 c-64 -26 -95 -123 -61 -189 63 -121 246 -73 246 64 0 94
-99 161 -185 125z m116 -49 c24 -24 29 -38 29 -76 0 -38 -5 -52 -29 -76 -75
-75 -180 5 -150 114 19 68 99 89 150 38z"/>
<path d="M10811 1418 c-5 -13 -27 -70 -50 -128 -46 -119 -47 -120 -25 -120 9
0 22 17 31 40 l16 40 57 0 57 0 16 -40 c11 -28 21 -40 36 -40 18 0 16 11 -35
131 -29 72 -54 133 -54 135 0 2 -9 4 -20 4 -12 0 -24 -9 -29 -22z m51 -76 c10
-26 18 -50 18 -54 0 -5 -20 -8 -44 -8 l-43 0 21 59 c11 33 23 58 25 55 3 -3
13 -26 23 -52z"/>
<path d="M11060 1305 l0 -135 80 0 c64 0 80 3 80 15 0 12 -14 15 -65 15 l-65
0 0 120 c0 100 -2 120 -15 120 -13 0 -15 -22 -15 -135z"/>
<path d="M11660 1305 l0 -135 85 0 c69 0 85 3 85 15 0 12 -14 15 -65 15 l-65
0 0 120 c0 113 -1 120 -20 120 -19 0 -20 -7 -20 -135z"/>
<path d="M11930 1305 l0 -135 68 0 c107 0 154 38 155 127 2 107 -37 143 -153
143 l-70 0 0 -135z m138 99 c12 -4 29 -19 37 -35 31 -58 9 -150 -37 -163 -13
-3 -40 -6 -60 -6 l-38 0 0 105 0 105 38 0 c20 0 47 -3 60 -6z"/>
<path d="M12331 1418 c-5 -13 -27 -70 -50 -128 -46 -119 -47 -120 -25 -120 9
0 22 17 31 40 l16 40 57 0 57 0 16 -40 c11 -28 21 -40 36 -40 18 0 16 11 -35
131 -29 72 -54 133 -54 135 0 2 -9 4 -20 4 -12 0 -24 -9 -29 -22z m51 -76 c10
-26 18 -50 18 -54 0 -5 -20 -8 -44 -8 l-43 0 21 59 c11 33 23 58 25 55 3 -3
13 -26 23 -52z"/>
<path d="M11330 1191 c0 -11 6 -21 13 -24 9 -3 9 -9 -1 -26 -7 -12 -8 -21 -2
-21 14 0 30 35 30 64 0 19 -5 26 -20 26 -13 0 -20 -7 -20 -19z"/>
</g>
</svg>
